<svg width="60" height="60" viewBox="0 0 60 60" fill="none" xmlns="http://www.w3.org/2000/svg">
<path d="M0 26.6667H6.66667V33.3333H0V26.6667ZM26.6667 6.66667H33.3333V20H26.6667V6.66667ZM20 26.6667H33.3333V40H26.6667V33.3333H20V26.6667ZM40 26.6667H46.6667V33.3333H53.3333V26.6667H60V33.3333H53.3333V40H60V53.3333H53.3333V60H46.6667V53.3333H33.3333V60H26.6667V46.6667H40V40H46.6667V33.3333H40V26.6667ZM53.3333 53.3333V40H46.6667V53.3333H53.3333ZM40 0H60V20H40V0ZM46.6667 6.66667V13.3333H53.3333V6.66667H46.6667ZM0 0H20V20H0V0ZM6.66667 6.66667V13.3333H13.3333V6.66667H6.66667ZM0 40H20V60H0V40ZM6.66667 46.6667V53.3333H13.3333V46.6667H6.66667Z" fill="url(#paint0_linear_44_172)"/>
<defs>
<linearGradient id="paint0_linear_44_172" x1="30" y1="0" x2="30" y2="60" gradientUnits="userSpaceOnUse">
<stop stop-color="#FF005D"/>
<stop offset="1" stop-color="#00D1FF"/>
</linearGradient>
</defs>
</svg>
