<svg width="160" height="160" viewBox="0 0 160 160" fill="none" xmlns="http://www.w3.org/2000/svg">
<path d="M50 76.6667H56.6667V83.3333H50V76.6667ZM76.6667 56.6667H83.3333V70H76.6667V56.6667ZM70 76.6667H83.3333V90H76.6667V83.3333H70V76.6667ZM90 76.6667H96.6667V83.3333H103.333V76.6667H110V83.3333H103.333V90H110V103.333H103.333V110H96.6667V103.333H83.3333V110H76.6667V96.6667H90V90H96.6667V83.3333H90V76.6667ZM103.333 103.333V90H96.6667V103.333H103.333ZM90 50H110V70H90V50ZM96.6667 56.6667V63.3333H103.333V56.6667H96.6667ZM50 50H70V70H50V50ZM56.6667 56.6667V63.3333H63.3333V56.6667H56.6667ZM50 90H70V110H50V90ZM56.6667 96.6667V103.333H63.3333V96.6667H56.6667Z" fill="url(#paint0_linear_44_147)"/>
<circle cx="80" cy="80" r="79.5" stroke="url(#paint1_linear_44_147)"/>
<defs>
<linearGradient id="paint0_linear_44_147" x1="80" y1="50" x2="80" y2="110" gradientUnits="userSpaceOnUse">
<stop stop-color="#FF005D"/>
<stop offset="1" stop-color="#00D1FF"/>
</linearGradient>
<linearGradient id="paint1_linear_44_147" x1="160" y1="100.5" x2="-5.65778e-06" y2="63" gradientUnits="userSpaceOnUse">
<stop stop-color="#FF005D"/>
<stop offset="1" stop-color="#00D1FF"/>
</linearGradient>
</defs>
</svg>
