<svg width="68" height="68" viewBox="0 0 68 68" fill="none" xmlns="http://www.w3.org/2000/svg">
<path fill-rule="evenodd" clip-rule="evenodd" d="M30.6666 0.666626C26.2464 0.666626 22.0071 2.42257 18.8815 5.54818C15.7559 8.67379 14 12.913 14 17.3333C14 21.7536 15.7559 25.9928 18.8815 29.1184C22.0071 32.244 26.2464 34 30.6666 34C35.0869 34 39.3261 32.244 42.4517 29.1184C45.5773 25.9928 47.3333 21.7536 47.3333 17.3333C47.3333 12.913 45.5773 8.67379 42.4517 5.54818C39.3261 2.42257 35.0869 0.666626 30.6666 0.666626ZM30.6666 37.3333C22.6833 37.3333 15.4166 39.6466 10.0733 42.9066C7.40663 44.5333 5.12663 46.4533 3.47996 48.54C1.85996 50.5866 0.666626 53.0433 0.666626 55.6666C0.666626 58.4833 2.03663 60.7033 4.00996 62.2866C5.87663 63.7866 8.33996 64.78 10.9566 65.4733C16.2166 66.8633 23.2366 67.3333 30.6666 67.3333C31.4355 67.3333 32.1966 67.3277 32.95 67.3166C33.5082 67.309 34.0556 67.1612 34.5419 66.8869C35.0282 66.6126 35.4378 66.2205 35.7331 65.7467C36.0284 65.2729 36.1999 64.7325 36.232 64.1751C36.2641 63.6177 36.1556 63.0612 35.9166 62.5566C34.6526 59.8813 33.998 56.9588 34 54C34 49.8266 35.2766 45.96 37.4566 42.7566C37.7807 42.2806 37.9758 41.7287 38.0232 41.1548C38.0705 40.5809 37.9683 40.0045 37.7266 39.4819C37.4849 38.9592 37.1119 38.508 36.644 38.1724C36.1761 37.8368 35.6292 37.628 35.0566 37.5666C33.6211 37.4111 32.1577 37.3333 30.6666 37.3333ZM66.36 47.56C66.9672 46.9313 67.3031 46.0893 67.2955 45.2153C67.2879 44.3413 66.9374 43.5053 66.3194 42.8872C65.7013 42.2692 64.8653 41.9186 63.9913 41.911C63.1173 41.9035 62.2753 42.2394 61.6466 42.8466L51.04 53.4533L46.3266 48.74C45.698 48.1328 44.8559 47.7968 43.982 47.8044C43.108 47.812 42.2719 48.1625 41.6539 48.7806C41.0359 49.3986 40.6853 50.2346 40.6777 51.1086C40.6701 51.9826 41.0061 52.8246 41.6133 53.4533L48.4466 60.2866C48.7871 60.6273 49.1914 60.8975 49.6364 61.0819C50.0814 61.2663 50.5583 61.3612 51.04 61.3612C51.5216 61.3612 51.9986 61.2663 52.4435 61.0819C52.8885 60.8975 53.2928 60.6273 53.6333 60.2866L66.36 47.56Z" fill="url(#paint0_linear_44_188)"/>
<defs>
<linearGradient id="paint0_linear_44_188" x1="33.9811" y1="0.666626" x2="33.9811" y2="67.3333" gradientUnits="userSpaceOnUse">
<stop stop-color="#00D1FF"/>
<stop offset="1" stop-color="#FF005D"/>
</linearGradient>
</defs>
</svg>
