<svg width="160" height="160" viewBox="0 0 160 160" fill="none" xmlns="http://www.w3.org/2000/svg">
<path fill-rule="evenodd" clip-rule="evenodd" d="M76.6666 46.6666C72.2464 46.6666 68.0071 48.4226 64.8815 51.5482C61.7559 54.6738 60 58.913 60 63.3333C60 67.7536 61.7559 71.9928 64.8815 75.1184C68.0071 78.244 72.2464 80 76.6666 80C81.0869 80 85.3261 78.244 88.4517 75.1184C91.5773 71.9928 93.3333 67.7536 93.3333 63.3333C93.3333 58.913 91.5773 54.6738 88.4517 51.5482C85.3261 48.4226 81.0869 46.6666 76.6666 46.6666ZM76.6666 83.3333C68.6833 83.3333 61.4166 85.6466 56.0733 88.9066C53.4066 90.5333 51.1266 92.4533 49.48 94.54C47.86 96.5866 46.6666 99.0433 46.6666 101.667C46.6666 104.483 48.0366 106.703 50.01 108.287C51.8766 109.787 54.34 110.78 56.9566 111.473C62.2166 112.863 69.2366 113.333 76.6666 113.333C77.4355 113.333 78.1966 113.328 78.95 113.317C79.5082 113.309 80.0556 113.161 80.5419 112.887C81.0282 112.613 81.4378 112.221 81.7331 111.747C82.0284 111.273 82.1999 110.732 82.232 110.175C82.2641 109.618 82.1556 109.061 81.9166 108.557C80.6526 105.881 79.998 102.959 80 100C80 95.8266 81.2766 91.96 83.4566 88.7566C83.7807 88.2806 83.9758 87.7287 84.0232 87.1548C84.0705 86.5809 83.9683 86.0045 83.7266 85.4819C83.4849 84.9592 83.1119 84.508 82.644 84.1724C82.1761 83.8368 81.6292 83.628 81.0566 83.5666C79.6211 83.4111 78.1577 83.3333 76.6666 83.3333ZM112.36 93.56C112.967 92.9313 113.303 92.0893 113.296 91.2153C113.288 90.3413 112.937 89.5053 112.319 88.8872C111.701 88.2692 110.865 87.9186 109.991 87.911C109.117 87.9035 108.275 88.2394 107.647 88.8466L97.04 99.4533L92.3266 94.74C91.698 94.1328 90.8559 93.7968 89.982 93.8044C89.108 93.812 88.2719 94.1625 87.6539 94.7806C87.0359 95.3986 86.6853 96.2346 86.6777 97.1086C86.6701 97.9826 87.0061 98.8246 87.6133 99.4533L94.4466 106.287C94.7871 106.627 95.1914 106.898 95.6364 107.082C96.0814 107.266 96.5583 107.361 97.04 107.361C97.5216 107.361 97.9986 107.266 98.4435 107.082C98.8885 106.898 99.2928 106.627 99.6333 106.287L112.36 93.56Z" fill="url(#paint0_linear_44_174)"/>
<circle cx="80" cy="80" r="79.5" stroke="url(#paint1_linear_44_174)"/>
<defs>
<linearGradient id="paint0_linear_44_174" x1="79.9811" y1="46.6666" x2="79.9811" y2="113.333" gradientUnits="userSpaceOnUse">
<stop stop-color="#00D1FF"/>
<stop offset="1" stop-color="#FF005D"/>
</linearGradient>
<linearGradient id="paint1_linear_44_174" x1="51.5" y1="6.5" x2="107" y2="154" gradientUnits="userSpaceOnUse">
<stop stop-color="#FF005D"/>
<stop offset="1" stop-color="#00D1FF"/>
</linearGradient>
</defs>
</svg>
